# xmcd CD database file
#
# Track frame offsets:
#	150
#	14305
#	27294
#	43970
#	56700
#	73710
#	87345
#	101437
#	120207
#	139965
#	156380
#	173182
#	191907
#
# Disc length: 2829 seconds
#
# Revision: 0
# Processed by: cddbd v1.4PL0 Copyright (c) Steve Scherf et al.
# Submitted via: CDex 1.50beta10
#
DISCID=b60b0b0d
DTITLE=Os Pereirinhas - Forró Gostoso vol 2
DYEAR=2000
DGENRE=Country
TTITLE0=Forró Gostoso
TTITLE1=Se quer voltar
TTITLE2=O pinto do meu tio
TTITLE3=Jantar da vizinha
TTITLE4=Bailão do pereirinha
TTITLE5=É bom demais
TTITLE6=O dedo na viola
TTITLE7=Forró demais
TTITLE8=Tita marruá
TTITLE9=Você pisou na bola
TTITLE10=Perereca da lagoa
TTITLE11=Lendas
TTITLE12=Fede mas é gostoso
EXTD=YEAR: 2000
EXTT0=
EXTT1=
EXTT2=
EXTT3=
EXTT4=
EXTT5=
EXTT6=
EXTT7=
EXTT8=
EXTT9=
EXTT10=
EXTT11=
EXTT12=
PLAYORDER=
